<?xml version="1.0" standalone="no"?><!DOCTYPE svg PUBLIC "-//W3C//DTD SVG 1.1//EN" "http://www.w3.org/Graphics/SVG/1.1/DTD/svg11.dtd"><svg t="1661844761348" class="icon" viewBox="0 0 1024 1024" version="1.1" xmlns="http://www.w3.org/2000/svg" p-id="6412" xmlns:xlink="http://www.w3.org/1999/xlink" width="200" height="200"><path d="M495.49 659.71c0-94.06 47.13-177.01 118.45-225.61 1.25-21.66 0.69-61.7-20.58-61.7 0 0-12.14 2.43-7.28-14.57 2.43-31.56 2.43-60.7 0-89.83-2.43-19.43 2.43-75.27-36.42-82.55-14.57-2.42-29.14-2.42-43.7 0-17 0-33.99-36.42-58.27-36.42l-53.41 7.28c-24.28 0-21.85 7.28-33.99 9.71-12.14 0-26.71 2.43-38.85 4.85-38.85 9.71-53.41 63.13-55.84 82.55-2.43 16.99-2.43 72.84-2.43 101.97 4.86 17-9.71 17-9.71 17-24.28-2.43-14.57 75.26-14.57 75.26 4.86 17 0 26.71 36.42 41.28 12.14 31.56 33.99 55.84 60.7 72.84 0 0 2.43 31.56 2.43 53.42-2.43-2.43 12.14 55.84-99.54 72.84-111.69 17-133.54 53.41-155.39 72.84-21.85 21.85-19.42 114.11-19.42 114.11H600.2c-63.49-49.53-104.71-127.48-104.71-215.27z" p-id="6413" fill="#cdcdcd"></path><path d="M760.32 466.13c-110.29 0-199.68 86.65-199.68 193.56 0 106.88 89.39 193.56 199.68 193.56S960 766.58 960 659.7c0-106.91-89.39-193.57-199.68-193.57z m136.72 237.33l-27.5 49.32c-0.41 1.32-1.5 2.33-3.24 3.02-1.75 0.69-3.51 0.61-5.28-0.23l-35.21-13.23c-7.38 5.85-15.21 10.61-23.5 14.28l-4.62 37.04c0.04 1.76-0.6 3.2-1.9 4.32s-2.83 1.7-4.59 1.73l-56.74 1.01c-1.76 0.03-3.31-0.49-4.65-1.57-1.34-1.07-2.03-2.49-2.06-4.25l-5.93-36.85c-7.98-2.93-15.97-7.41-24-13.43L663.1 759.1c-1.74 0.91-3.5 1.05-5.27 0.42-1.77-0.63-2.88-1.6-3.35-2.91l-29.23-48.31c-0.91-1.74-1.27-3.39-1.08-4.93 0.19-1.55 0.94-2.99 2.23-4.33l29.27-23.61c-0.53-5.27-0.83-9.88-0.9-13.84-0.07-3.96 0.07-8.58 0.42-13.87l-30.1-22.56c-1.34-1.29-2.14-2.71-2.39-4.25-0.25-1.53 0.06-3.19 0.9-4.97l27.5-49.32c0.41-1.32 1.5-2.33 3.24-3.02 1.75-0.69 3.51-0.61 5.28 0.23l35.21 13.23c7.81-6.3 15.64-11.06 23.5-14.28l4.62-37.04c-0.04-1.76 0.6-3.2 1.9-4.32s2.83-1.7 4.59-1.73l56.74-1.01c1.76-0.03 3.31 0.49 4.65 1.57 1.34 1.07 2.03 2.49 2.06 4.25l5.93 36.85c7.97 2.94 15.97 7.41 23.99 13.43l34.72-14.48c1.74-0.91 3.5-1.05 5.27-0.42 1.77 0.63 2.88 1.6 3.35 2.91l29.23 48.31c0.91 1.74 1.27 3.39 1.08 4.93-0.19 1.55-0.94 2.99-2.23 4.33l-29.28 23.62c0.53 5.27 0.83 9.88 0.9 13.84 0.07 3.96-0.06 8.58-0.41 13.87l30.1 22.56c1.34 1.29 2.14 2.71 2.39 4.25 0.26 1.52-0.04 3.18-0.89 4.96z" p-id="6414" fill="#cdcdcd"></path><path d="M759.44 610.22c-13.63 0.24-25.21 5.28-34.71 15.13-9.5 9.85-14.13 21.59-13.89 35.22 0.24 13.63 5.28 25.21 15.13 34.71 9.85 9.5 21.59 14.13 35.22 13.89 13.63-0.24 25.21-5.28 34.71-15.13 9.5-9.85 14.13-21.59 13.89-35.22s-5.28-25.21-15.13-34.71c-9.85-9.51-21.59-14.13-35.22-13.89z" p-id="6415" fill="#cdcdcd"></path></svg>