<?xml version="1.0" standalone="no"?><!DOCTYPE svg PUBLIC "-//W3C//DTD SVG 1.1//EN" "http://www.w3.org/Graphics/SVG/1.1/DTD/svg11.dtd"><svg t="1660377693555" class="icon" viewBox="0 0 1024 1024" version="1.1" xmlns="http://www.w3.org/2000/svg" p-id="5791" xmlns:xlink="http://www.w3.org/1999/xlink" width="200" height="200"><defs><style type="text/css">@font-face { font-family: feedback-iconfont; src: url("//at.alicdn.com/t/font_1031158_u69w8yhxdu.woff2?t=1630033759944") format("woff2"), url("//at.alicdn.com/t/font_1031158_u69w8yhxdu.woff?t=1630033759944") format("woff"), url("//at.alicdn.com/t/font_1031158_u69w8yhxdu.ttf?t=1630033759944") format("truetype"); }
</style></defs><path d="M219.4 363.4c11.8 35 31.4 65.4 58.7 92.2 23.2-25.2 40.7-56.2 52-92.2H219.4z m722.2-207.1H508.9L484.2 23.9H82.4C38.1 23.9 2 60 2 104.3v683.1c0 44.3 36.1 80.4 80.4 80.4h366.3l-29.4 132.4h522.4c44.3 0 80.4-36.1 80.4-80.4V236.7c-0.1-44.4-36.2-80.4-80.5-80.4zM396.1 562.2c-47.4-17.5-86.5-39.7-118-65.4-33 29.4-74.2 51-122.1 64.4l-16.5-27.3c46.9-12.4 86-30.9 116.9-57.2-31.9-32.5-54.1-70.1-66.5-112.8h-44.8V333H262c-7.2-13.4-16.5-26.3-27.3-38.6l30.9-11.3c10.8 13.9 20.6 30.4 29.4 49.5h111.8v30.9H362c-14.4 44.3-35 81.4-62.3 111.3 30.4 24.2 68.5 44.3 113.3 60.8l-16.9 26.6z m585.7 357c0 22.2-18 40.2-40.2 40.2H469.8l20.1-92.2h150.9l-86-479.6-0.5 2.6-3.6-19.1 1 0.5-31.4-175.2h421.9c22.2 0 40.2 18 40.2 40.2v682.6h-0.6zM655.2 540.1H766v-29.4H655.2V452h118v-29.4H620.7v211.2h157.1v-29.4H655.2v-64.3z m231.3-63.4c-9.3 0-17.5 1.5-25.2 5.7-7.2 3.6-14.4 9.3-20.1 16.5v-18h-33.5v153h33.5v-92.2c1-12.4 5.2-21.6 12.4-28.3 6.2-5.7 13.4-8.8 21.6-8.8 23.2 0 34.5 12.4 34.5 37.6v91.2h33.5V539c1-41.7-18.6-62.3-56.7-62.3z" p-id="5792" fill="#cdcdcd"></path></svg>